<svg id="Layer_1" enable-background="new 0 0 450 450" height="512" viewBox="0 0 450 450" width="512" xmlns="http://www.w3.org/2000/svg"><g><g><g><path d="m61.3 246.5c-20.3 0-38.5-10.5-48.7-28.1s-10.2-38.6 0-56.3l44.4-79.5c.9-1.6 2.6-2.6 4.4-2.6s3.5 1 4.4 2.6l44.4 79.5c10.1 17.6 10.1 38.6 0 56.2s-28.5 28.2-48.9 28.2zm0-151.2-40 71.7c-8.4 14.5-8.4 31.8 0 46.3s23.3 23.1 40.1 23.1 31.7-8.6 40.1-23.1 8.4-31.8 0-46.3z"/></g><g><path d="m112.6 193.4h-102.6c-2.8 0-5-2.2-5-5s2.2-5 5-5h102.6c2.8 0 5 2.2 5 5s-2.2 5-5 5z"/></g></g><g><g><path d="m388.7 246.5c-20.3 0-38.5-10.5-48.7-28.1s-10.2-38.6 0-56.3l44.4-79.5c.9-1.6 2.5-2.6 4.4-2.6s3.5 1 4.4 2.6l44.4 79.5c10.1 17.6 10.1 38.6 0 56.2s-28.6 28.2-48.9 28.2zm0-151.2-40 71.7c-8.4 14.5-8.4 31.8 0 46.3s23.3 23.1 40.1 23.1 31.7-8.6 40.1-23.1 8.4-31.8 0-46.3z"/></g><g><path d="m440 193.4h-102.6c-2.8 0-5-2.2-5-5s2.2-5 5-5h102.6c2.8 0 5 2.2 5 5s-2.3 5-5 5z"/></g></g><g><path d="m225 108.7c-19.1 0-34.6-15.5-34.6-34.6s15.5-34.6 34.6-34.6 34.6 15.5 34.6 34.6-15.5 34.6-34.6 34.6zm0-59.2c-13.6 0-24.6 11-24.6 24.6s11 24.6 24.6 24.6 24.6-11 24.6-24.6-11-24.6-24.6-24.6z"/></g><g><g><path d="m197.5 90.1h-136.2c-1.6 0-3.3-.1-4.9-.2-14.6-.9-28.7-5.8-40.7-14.2-3.9-2.8-6.4-7.1-6.9-11.8-.4-4.7 1.3-9.3 4.6-12.7 3-3 7-4.7 11.3-4.7 3.3 0 6.4 1 9.1 2.8 8 5.6 17.8 8.7 27.5 8.7h136.2c2.8 0 5 2.2 5 5s-2.2 5-5 5h-136.2c-11.7 0-23.5-3.7-33.2-10.5-1-.7-2.1-1-3.3-1-1.6 0-3.1.6-4.3 1.8-1.3 1.3-1.9 3-1.7 4.7.2 1.8 1.1 3.4 2.6 4.5 10.6 7.3 22.9 11.6 35.6 12.4 1.4.1 2.9.1 4.3.1h136.2c2.8 0 5 2.2 5 5s-2.2 5.1-5 5.1z"/></g><g><path d="m388.7 90.1h-136.2c-2.8 0-5-2.2-5-5s2.2-5 5-5h136.2c1.4 0 2.8 0 4.3-.1 12.8-.8 25.2-5.1 35.7-12.4 1.5-1.1 2.4-2.7 2.6-4.5.1-1.8-.5-3.5-1.7-4.7-2.1-2.1-5.3-2.4-7.6-.7-9.7 6.9-21.2 10.5-33.2 10.5h-136.3c-2.8 0-5-2.2-5-5s2.2-5 5-5h136.2c9.9 0 19.4-3 27.5-8.7 6.3-4.5 14.9-3.7 20.5 1.8 3.4 3.3 5 8 4.6 12.7-.4 4.8-2.9 9.1-6.8 11.8-12 8.4-26.1 13.4-40.8 14.3-1.8-.1-3.4 0-5 0z"/></g></g><g><path d="m325.7 410.5h-201.4c-2.8 0-5-2.2-5-5 0-18.9 15.4-34.3 34.3-34.3h142.8c18.9 0 34.3 15.4 34.3 34.3 0 2.8-2.2 5-5 5zm-195.9-10h190.4c-2.3-11-12.1-19.3-23.8-19.3h-142.8c-11.7 0-21.5 8.3-23.8 19.3z"/></g><g><path d="m210 381.2c-2.8 0-5-2.2-5-5v-276.6c0-2.8 2.2-5 5-5s5 2.2 5 5v276.5c0 2.8-2.2 5.1-5 5.1z"/></g><g><path d="m240 381.2c-2.8 0-5-2.2-5-5v-276.6c0-2.8 2.2-5 5-5s5 2.2 5 5v276.5c0 2.8-2.2 5.1-5 5.1z"/></g></g></svg>