<svg id="Layer_1" enable-background="new 0 0 100 100" height="512" viewBox="0 0 100 100" width="512" xmlns="http://www.w3.org/2000/svg"><g><path d="m45.6 36.9c2.9 0 5.3-2.4 5.3-5.3s-2.4-5.3-5.3-5.3-5.3 2.4-5.3 5.3 2.4 5.3 5.3 5.3zm0-7.5c1.3 0 2.3 1 2.3 2.3s-1 2.3-2.3 2.3-2.3-1-2.3-2.3 1.1-2.3 2.3-2.3z"/><path d="m54.7 50c0-5-4.1-9.1-9.1-9.1s-9.1 4.1-9.1 9.1 4.1 9.1 9.1 9.1 9.1-4.1 9.1-9.1zm-9.1 6.1c-3.4 0-6.1-2.7-6.1-6.1s2.7-6.1 6.1-6.1 6.1 2.7 6.1 6.1-2.7 6.1-6.1 6.1z"/><path d="m33.2 45.9c.4-1.3.3-2.8-.3-4-.6-1.3-1.7-2.2-3.1-2.6-2.8-.9-5.7.6-6.6 3.4-.4 1.3-.3 2.8.3 4 .6 1.3 1.7 2.2 3.1 2.6.5.2 1.1.3 1.6.3 2.2 0 4.2-1.4 5-3.7zm-2.9-.9c-.4 1.2-1.7 1.8-2.9 1.5-1.2-.4-1.8-1.7-1.5-2.9.2-.6.6-1 1.1-1.3.3-.2.7-.2 1-.2.2 0 .5 0 .7.1 1.3.3 2 1.6 1.6 2.8z"/><path d="m37.9 60.6c-1.1-.8-2.5-1.2-3.9-.9-1.4.2-2.6 1-3.4 2.1s-1.2 2.5-.9 3.9c.2 1.4 1 2.6 2.1 3.4.9.7 2 1 3.1 1 .3 0 .6 0 .8-.1 1.4-.2 2.6-1 3.4-2.1s1.2-2.5.9-3.9c-.2-1.3-.9-2.6-2.1-3.4zm-1.2 5.6c-.4.5-.9.8-1.5.9s-1.2 0-1.7-.4c-1-.7-1.2-2.2-.5-3.2.4-.6 1.1-.9 1.8-.9.5 0 .9.1 1.3.4 1.1.8 1.3 2.2.6 3.2z"/><path d="m53.3 60.6c-2.4 1.7-2.9 5-1.2 7.4.8 1.1 2 1.9 3.4 2.1.3 0 .6.1.8.1 1.1 0 2.2-.3 3.1-1 2.3-1.7 2.9-5 1.2-7.4-1.6-2.4-4.9-2.9-7.3-1.2zm4.5 6.1c-.5.4-1.1.5-1.7.4s-1.1-.4-1.5-.9c-.7-1-.5-2.4.5-3.2.4-.3.9-.4 1.3-.4.7 0 1.4.3 1.8.9.8 1 .6 2.5-.4 3.2z"/><path d="m65.5 39.6c-1.3-.6-2.7-.8-4-.3-1.3.4-2.4 1.4-3.1 2.6-.6 1.3-.8 2.7-.3 4 .4 1.3 1.4 2.4 2.6 3.1.8.4 1.6.6 2.4.6.5 0 1.1-.1 1.6-.3 1.3-.4 2.4-1.4 3.1-2.6.6-1.3.8-2.7.3-4-.4-1.3-1.3-2.4-2.6-3.1zm-.4 5.8c-.3.5-.7.9-1.3 1.1s-1.2.1-1.7-.1c-.5-.3-.9-.7-1.1-1.3s-.1-1.2.1-1.7c.3-.5.7-.9 1.3-1.1.2-.1.5-.1.7-.1.4 0 .7.1 1 .2.5.3.9.7 1.1 1.3.3.5.2 1.1-.1 1.7z"/><path d="m73.8 40.8c-2.4-7.5-7.7-13.7-14.7-17.3-7.1-3.5-15.1-4.2-22.6-1.7-15.6 5.1-24.1 21.8-19 37.4 4.1 12.5 15.7 20.5 28.2 20.5 3 0 6.1-.5 9.1-1.5 7.5-2.4 13.7-7.7 17.3-14.7 3.6-7.1 4.2-15.1 1.7-22.7zm-19.9 34.6c-14 4.5-29-3.1-33.6-17.1-4.5-14 3.1-29 17.1-33.6 2.7-.9 5.5-1.3 8.3-1.3 4.1 0 8.3 1 12.1 2.9 6.3 3.2 11 8.7 13.2 15.5s1.6 14-1.6 20.3-8.8 11.1-15.5 13.3z"/><path d="m81.6 15.4c-.6-.6-1.5-.6-2.1 0l-4.4 4.4c-11.2-10.8-27.6-14.7-42.5-9.9-22.1 7.2-34.2 31-27 53.1 3.4 10.7 10.9 19.4 20.9 24.5 6 3.1 12.5 4.6 19.1 4.6 4.4 0 8.8-.7 13.1-2.1 6.6-2.1 12.5-5.9 17.3-10.8l5.4 5.4c.3.3.7.4 1.1.4.4 0 .8-.2 1.1-.5 3-3.3 5.5-7 7.6-10.9 9.8-19.5 6-42.9-9.6-58.2zm-23.9 71.8c-9.9 3.2-20.5 2.4-29.9-2.4-9.2-4.7-16.2-12.8-19.4-22.7-6.7-20.5 4.6-42.7 25.1-49.3 13.8-4.5 29.1-.8 39.4 9.2l-3.9 3.9c-.3.3-.4.7-.4 1.1s.2.8.5 1.1c10.1 9.8 12.5 24.9 6.1 37.4-1.2 2.3-2.7 4.5-4.4 6.5-.5.6-.5 1.5.1 2l3.1 3.1c-4.6 4.6-10.1 8.1-16.3 10.1zm30.7-15c-1.7 3.3-3.7 6.3-6.1 9.1l-8.4-8.4c1.5-1.9 2.8-3.9 3.9-6.1 6.8-13.3 4.5-29.1-5.6-39.9l8.4-8.4c13.7 14.5 16.9 35.9 7.8 53.7z"/></g></svg>