<svg height="512" viewBox="0 0 48 48" width="512" xmlns="http://www.w3.org/2000/svg"><g id="45-gauge,-dashboard,-meter,-pressure,-speed,-speedometer,-traffic" fill="none" fill-rule="evenodd"><path id="Shape" d="m24 5c10.4934102 0 19 8.5065898 19 19s-8.5065898 19-19 19-19-8.5065898-19-19 8.5065898-19 19-19zm0 2c-9.3888407 0-17 7.6111593-17 17s7.6111593 17 17 17 17-7.6111593 17-17-7.6111593-17-17-17zm10.7071068 6.2928932c.3604839.360484.425478 1.0107306 0 1.4142136l-7.2609404 7.2609012c.3518986.5955188.5538336 1.2901732.5538336 2.031992 0 2.209139-1.790861 4-4 4s-4-1.790861-4-4 1.790861-4 4-4c.7418188 0 1.4364732.201935 2.031992.5538336l7.2609012-7.2609404c.3905243-.3905243 1.0236893-.3905243 1.4142136 0zm-10.7071068 8.7071068c-1.1045695 0-2 .8954305-2 2s.8954305 2 2 2 2-.8954305 2-2-.8954305-2-2-2zm11.8176442-3.4239188c.7754607 1.6870133 1.1823558 3.5276786 1.1823558 5.4239188 0 .5522847-.4477153 1-1 1s-1-.4477153-1-1c0-1.6064162-.3439402-3.1622937-.9995678-4.5886102-.2306641-.5018093-.0108575-1.0955962.4909517-1.3262603.5018093-.2306641 1.0955962-.0108575 1.3262603.4909517zm-11.8176442-7.5760812c1.9137646 0 3.7708252.4144588 5.4702769 1.2037759.500895.2326427.7183565.8272925.4857138 1.3281875-.2326427.5008951-.8272925.7183565-1.3281875.4857139-1.4368456-.6673487-3.0065587-1.0176773-4.6278032-1.0176773-6.0751322 0-11 4.9248678-11 11 0 .5522847-.4477153 1-1 1s-1-.4477153-1-1c0-7.1797017 5.8202983-13 13-13z" fill="rgb(0,0,0)" fill-rule="nonzero"/></g></svg>