<?xml version="1.0" encoding="iso-8859-1"?>
<!-- Generator: Adobe Illustrator 19.0.0, SVG Export Plug-In . SVG Version: 6.00 Build 0)  -->
<svg xmlns="http://www.w3.org/2000/svg" xmlns:xlink="http://www.w3.org/1999/xlink" version="1.1" id="Layer_1" x="0px" y="0px" viewBox="0 0 512 512" style="enable-background:new 0 0 512 512;" xml:space="preserve" width="512" height="512">
<g>
	<path d="M314.24,274.955c-5.52,0-10,4.48-10,10s4.48,10,10,10c5.53,0,10-4.48,10-10S319.77,274.955,314.24,274.955z"/>
	<path d="M274.24,244.955c-5.52,0-10,4.48-10,10s4.48,10,10,10c5.53,0,10-4.48,10-10S279.77,244.955,274.24,244.955z"/>
	<path d="M234.24,214.955c-5.52,0-10,4.48-10,10s4.48,10,10,10c5.53,0,10-4.48,10-10S239.77,214.955,234.24,214.955z"/>
	<path d="M66,424.955c0,5.52,4.48,10,10,10s10-4.48,10-10s-4.48-10-10-10S66,419.435,66,424.955z"/>
	<path d="M477.383,251.527c-22.899-19.762-52.614-28.652-81.512-24.375c-28.285,4.166-47.749-5.46-65.627-26.916   c-21.369-25.665-37.814-65.011-61.683-100.826c-1.854-2.783-4.977-4.455-8.321-4.455h-27.88c-32.253,0-44.1-11.705-67.702-35.023   c-3.857-3.812-10.048-3.854-13.956-0.099C35.211,170.759,33.841,172.047,33.364,172.593c-11.961,13.756-8.986,34.919,6.292,44.849   c224.781,172.263,214.715,164.564,215.099,164.836c11.848,8.294,25.744,12.678,40.186,12.678H482c16.542,0,30-13.458,30-30   c0-13.99,0-26.01,0-40C512,297.278,499.383,270.516,477.383,251.527z M157.55,80.988c21.288,20.699,38.225,33.967,74.811,33.967   h22.475c3.695,5.74,7.157,11.479,10.293,16.846c-37.254,7.781-60.462,0.314-92.258-17.223c-3.617-1.994-8.085-1.562-11.249,1.09   c-12.459,10.433-30.284,12.324-44.769,4.41L157.55,80.988z M492,364.955c0,5.514-4.486,10-10,10H294.94   c-10.248,0-20.115-3.093-28.546-8.944L51.483,201.308c-0.251-0.191-0.511-0.372-0.778-0.539   c-5.142-3.219-6.232-10.143-2.489-14.765l5.921-5.688c160.325,122.773,221.529,169.692,222.164,170.09   c4.764,2.977,10.255,4.55,15.879,4.55H492V364.955z M492,334.955H292.18c-1.74,0-3.441-0.451-4.943-1.309L68.729,166.299   l33.243-31.929c20.395,14.087,46.903,13.877,66.896,0.783c23.562,12.491,43.958,19.814,68.617,19.813   c11.479,0,23.889-1.594,37.962-4.985c2.361,4.25,4.528,8.179,7.004,12.633l-27.002,27.002c-3.905,3.905-3.905,10.237,0,14.143   c3.907,3.905,10.236,3.904,14.143,0l23.128-23.128c5.117,8.654,10.577,17.259,16.501,25.207l-13.773,13.781   c-3.904,3.906-3.902,10.238,0.004,14.143c3.907,3.904,10.236,3.902,14.143-0.004l12.611-12.618   c7.536,7.67,15.405,13.642,23.731,17.99l-10.487,10.487c-3.905,3.905-3.905,10.237,0,14.143c3.907,3.905,10.236,3.904,14.143,0   l17.264-17.264c9.916,1.957,20.628,2.114,31.937,0.445c23.148-3.421,47.029,3.77,65.523,19.731   C481.909,281.854,492,303.098,492,324.955V334.955z"/>
	<path d="M0,384.955c0,5.522,4.478,10,10,10h206c5.522,0,10-4.478,10-10s-4.478-10-10-10H10C4.478,374.955,0,379.433,0,384.955z"/>
	<path d="M216,414.955H116c-5.522,0-10,4.478-10,10s4.478,10,10,10h100c5.522,0,10-4.478,10-10S221.522,414.955,216,414.955z"/>
	<path d="M356,454.955c5.522,0,10-4.478,10-10s-4.478-10-10-10H256c-5.522,0-10,4.478-10,10s4.478,10,10,10H356z"/>
	<path d="M502,414.955H396c-5.522,0-10,4.478-10,10s4.478,10,10,10h106c5.522,0,10-4.478,10-10S507.522,414.955,502,414.955z"/>
</g>















</svg>
