<svg id="Icons" height="512" viewBox="0 0 74 74" width="512" xmlns="http://www.w3.org/2000/svg"><path d="m37 72a35 35 0 1 1 35-35 35.04 35.04 0 0 1 -35 35zm0-68a33 33 0 1 0 33 33 33.038 33.038 0 0 0 -33-33z"/><path d="m37.124 44.827a7.935 7.935 0 1 1 7.935-7.935 7.945 7.945 0 0 1 -7.935 7.935zm0-13.869a5.935 5.935 0 1 0 5.935 5.934 5.942 5.942 0 0 0 -5.935-5.934z"/><path d="m31.468 33.881a1 1 0 0 1 -.9-.558c-3.481-7.073-12.37-6.1-12.46-6.094a1 1 0 0 1 -1.108-.875 13.08 13.08 0 0 1 .681-6.2 11.24 11.24 0 0 1 6.442-6.506 12.406 12.406 0 0 1 9.966.33c8.632 4.14 7.243 16.351 7.18 16.869a1 1 0 0 1 -1.986-.242c.014-.113 1.274-11.307-6.059-14.824a10.412 10.412 0 0 0 -8.356-.277 9.263 9.263 0 0 0 -5.316 5.355 10.789 10.789 0 0 0 -.644 4.335c2.764-.042 10.132.494 13.458 7.25a1 1 0 0 1 -.456 1.339.975.975 0 0 1 -.442.098z"/><path d="m30.514 62.254a11.323 11.323 0 0 1 -7.023-2.476 12.413 12.413 0 0 1 -4.7-8.8c-.731-9.545 10.539-14.448 11.019-14.652a1 1 0 0 1 .783 1.84c-.105.045-10.429 4.551-9.808 12.66a10.4 10.4 0 0 0 3.939 7.376 9.259 9.259 0 0 0 7.3 1.925 10.785 10.785 0 0 0 4.076-1.607c-1.4-2.339-4.639-9.02-.45-15.28a1 1 0 0 1 1.663 1.113c-4.369 6.525.734 13.543.953 13.838a1 1 0 0 1 -.2 1.4 13.086 13.086 0 0 1 -5.719 2.509 11.264 11.264 0 0 1 -1.833.154z"/><path d="m51.259 47.327c-3.372 0-7.078-1.222-11.067-3.656a1 1 0 1 1 1.041-1.707c5.081 3.1 9.57 4.063 13.337 2.859a12.243 12.243 0 0 0 6.872-6.237c2.3-6.043-3-10.2-5.306-11.668-3.017 7.243-12.23 8.036-12.641 8.067a1 1 0 0 1 -.154-1.994c.093-.007 9.238-.812 11.3-7.825a1 1 0 0 1 1.413-.61c3.728 1.9 10.042 7.424 7.247 14.777a14.076 14.076 0 0 1 -8.091 7.386 12.836 12.836 0 0 1 -3.951.608z"/></svg>