<?xml version="1.0"?>
<svg xmlns="http://www.w3.org/2000/svg" viewBox="0 0 64 64" width="512" height="512"><g id="Steering_Wheel" data-name="Steering Wheel"><path d="M32,60A28,28,0,1,1,60,32,28.0314,28.0314,0,0,1,32,60ZM32,6A26,26,0,1,0,58,32,26.03,26.03,0,0,0,32,6Z"/><path d="M52.376,28H44a1,1,0,0,1-.8-.4l-1.8-2.4A3.016,3.016,0,0,0,39,24H25a3.0146,3.0146,0,0,0-2.4,1.2l-1.8,2.4a1,1,0,0,1-.8.4H11.624a1,1,0,0,1-.9712-1.2378,21.9746,21.9746,0,0,1,42.6949,0A1,1,0,0,1,52.376,28ZM44.5,26h6.56a19.9742,19.9742,0,0,0-38.12,0H19.5L21,24a5.0234,5.0234,0,0,1,4-2H39a5.0241,5.0241,0,0,1,4,2Z"/><path d="M28,53.6133a1,1,0,0,1-.19-.0181A21.9737,21.9737,0,0,1,10.249,35.1421,1,1,0,0,1,11.2388,34H12A17.019,17.019,0,0,1,29,51v1.6133a1,1,0,0,1-1,1ZM12.4272,36.0059A19.9784,19.9784,0,0,0,27,51.3638V51A15.0183,15.0183,0,0,0,12.4272,36.0059Z"/><path d="M36,53.6133a.9993.9993,0,0,1-1-1V51A17.019,17.019,0,0,1,52,34h.7617a1.0005,1.0005,0,0,1,.99,1.1421A21.9759,21.9759,0,0,1,36.19,53.5952.9892.9892,0,0,1,36,53.6133ZM51.5732,36.0059A15.0187,15.0187,0,0,0,37,51v.3638A19.98,19.98,0,0,0,51.5732,36.0059Z"/><path d="M32,40a6,6,0,1,1,6-6A6.0066,6.0066,0,0,1,32,40Zm0-10a4,4,0,1,0,4,4A4.0045,4.0045,0,0,0,32,30Z"/></g></svg>
