<svg xmlns="http://www.w3.org/2000/svg" viewBox="0 0 64 64" width="512" height="512"><path d="M32 60a28 28 0 1 1 28-28 28.031 28.031 0 0 1-28 28zm0-54a26 26 0 1 0 26 26A26.03 26.03 0 0 0 32 6zm20.376 22H44a1 1 0 0 1-.8-.4l-1.8-2.4A3.016 3.016 0 0 0 39 24H25a3.015 3.015 0 0 0-2.4 1.2l-1.8 2.4a1 1 0 0 1-.8.4h-8.376a1 1 0 0 1-.971-1.238 21.975 21.975 0 0 1 42.695 0A1 1 0 0 1 52.376 28zM44.5 26h6.56a19.974 19.974 0 0 0-38.12 0h6.56l1.5-2a5.023 5.023 0 0 1 4-2h14a5.024 5.024 0 0 1 4 2zM28 53.613a1 1 0 0 1-.19-.018 21.974 21.974 0 0 1-17.561-18.453 1 1 0 0 1 .99-1.142H12a17.019 17.019 0 0 1 17 17v1.613a1 1 0 0 1-1 1zM12.427 36.006A19.978 19.978 0 0 0 27 51.364V51a15.018 15.018 0 0 0-14.573-14.994zM36 53.613a.999.999 0 0 1-1-1V51a17.019 17.019 0 0 1 17-17h.762a1.001 1.001 0 0 1 .99 1.142A21.976 21.976 0 0 1 36.19 53.595a.989.989 0 0 1-.19.018zm15.573-17.607A15.019 15.019 0 0 0 37 51v.364a19.98 19.98 0 0 0 14.573-15.358zM32 40a6 6 0 1 1 6-6 6.007 6.007 0 0 1-6 6zm0-10a4 4 0 1 0 4 4 4.005 4.005 0 0 0-4-4z"/></svg>