<svg xmlns="http://www.w3.org/2000/svg" height="512" viewBox="0 0 24 24" width="512" xmlns:v="https://vecta.io/nano"><path d="M12 3a.5.5 0 0 1-.5-.5v-2a.5.5 0 1 1 1 0v2a.5.5 0 0 1-.5.5zm6.718 2.782a.5.5 0 0 1-.354-.853l1.414-1.414a.5.5 0 0 1 .707.707l-1.414 1.414a.5.5 0 0 1-.353.146zM23.5 12.5h-2a.5.5 0 1 1 0-1h2a.5.5 0 1 1 0 1zm-3.368 8.132a.5.5 0 0 1-.354-.146l-1.414-1.414a.5.5 0 0 1 .707-.707l1.414 1.414a.5.5 0 0 1-.353.853zM12 24a.5.5 0 0 1-.5-.5v-2a.5.5 0 1 1 1 0v2a.5.5 0 0 1-.5.5zm-8.132-3.368a.5.5 0 0 1-.354-.853l1.414-1.414a.5.5 0 0 1 .707.707l-1.414 1.414a.5.5 0 0 1-.353.146zM2.5 12.5h-2a.5.5 0 1 1 0-1h2a.5.5 0 1 1 0 1zm2.782-6.718a.5.5 0 0 1-.354-.146L3.515 4.222a.5.5 0 0 1 .707-.707l1.414 1.414a.5.5 0 0 1-.354.853zM10.573 20a.51.51 0 0 1-.175-.031.5.5 0 0 1-.321-.534L10.93 13H7.5a.5.5 0 0 1-.4-.8l6-8c.139-.186.386-.252.597-.16a.5.5 0 0 1 .297.542L13.09 10h3.41a.5.5 0 0 1 .44.263c.087.162.078.358-.022.513l-5.927 9a.5.5 0 0 1-.418.224zM8.5 12h3a.5.5 0 0 1 .496.566l-.641 4.838L15.572 11H12.5a.5.5 0 0 1-.382-.177c-.095-.112-.136-.261-.111-.405l.663-3.978z"/></svg>