<svg xmlns="http://www.w3.org/2000/svg" height="512" viewBox="0 0 24 24" width="512" xmlns:v="https://vecta.io/nano"><path d="M19.5 19h-5a.5.5 0 1 1 0-1h5a1.5 1.5 0 0 0 1.5-1.5v-1a.5.5 0 0 1 .5-.5h.991a.5.5 0 0 0 .5-.5v-6a.5.5 0 0 0-.5-.5H21.5a.5.5 0 0 1-.5-.5v-1A1.5 1.5 0 0 0 19.5 5h-3a.5.5 0 1 1 0-1h3C20.878 4 22 5.122 22 6.5V7h.491a1.5 1.5 0 0 1 1.5 1.5v6a1.5 1.5 0 0 1-1.5 1.5H22v.5c0 1.378-1.122 2.5-2.5 2.5zm-13 0h-4C1.122 19 0 17.878 0 16.5v-10C0 5.122 1.122 4 2.5 4h7a.5.5 0 1 1 0 1h-7A1.5 1.5 0 0 0 1 6.5v10A1.5 1.5 0 0 0 2.5 18h4a.5.5 0 1 1 0 1zm2.803 2c-.079 0-.16-.019-.234-.058a.5.5 0 0 1-.24-.599L10.923 14H7a.5.5 0 0 1-.411-.785l6.926-10c.136-.196.395-.266.611-.174a.5.5 0 0 1 .289.566L13.007 10H17a.5.5 0 0 1 .396.805l-7.697 10c-.097.127-.245.195-.396.195zm-1.348-8h3.66a.5.5 0 0 1 .474.657l-1.39 4.209L15.984 11h-3.599a.5.5 0 0 1-.489-.608l.996-4.521z"/></svg>