<svg xmlns="http://www.w3.org/2000/svg" height="512" viewBox="0 0 128 128" width="512" xmlns:v="https://vecta.io/nano"><path d="M96.05 89.228c3.548-7.959 5.346-15.6 5.346-22.744C101.4 40.941 85.669 22.4 64 22.4S26.6 40.941 26.6 66.484c0 7.14 1.8 14.785 5.346 22.744a9.25 9.25 0 0 0 5.9 16.371h8.513a9.25 9.25 0 0 0 7.755-14.293C50.008 84.98 45.1 75.539 45.1 66.484 45.1 51.421 52.875 40.9 64 40.9s18.9 10.52 18.9 25.583c0 9.055-4.9 18.5-9.017 24.822a9.249 9.249 0 0 0 7.75 14.295h8.513a9.25 9.25 0 0 0 5.9-16.371zm-5.9 12.871h-8.517a5.75 5.75 0 0 1-4.82-8.885C81.185 86.491 86.4 76.4 86.4 66.484 86.4 49.36 77.187 37.4 64 37.4S41.6 49.36 41.6 66.484c0 9.913 5.211 20.007 9.583 26.73a5.75 5.75 0 0 1-4.82 8.885h-8.509a5.751 5.751 0 0 1-2.84-10.752 1.75 1.75 0 0 0 .719-2.263C32 81.11 30.1 73.507 30.1 66.484 30.1 42.969 44.359 25.9 64 25.9s33.9 17.069 33.9 40.584c0 7.023-1.894 14.626-5.629 22.6a1.75 1.75 0 0 0 .719 2.263 5.751 5.751 0 0 1-2.84 10.752zM66.375 29.125h-4.75a1.75 1.75 0 0 0 0 3.5h4.75a1.75 1.75 0 0 0 0-3.5zM43.59 37.98l-3.036 3.653a1.75 1.75 0 0 0 2.691 2.237l3.037-3.653a1.75 1.75 0 0 0-2.692-2.237zM37.3 65.214v-4.75a1.75 1.75 0 0 0-3.5 0v4.75a1.75 1.75 0 0 0 3.5 0zm2.348 15.468a1.75 1.75 0 1 0-3.216 1.379l1.868 4.366a1.75 1.75 0 0 0 3.217-1.379zM87 41.633l-3.038-3.653a1.75 1.75 0 0 0-2.691 2.237l3.036 3.653A1.75 1.75 0 0 0 87 41.633zm6.749 23.581v-4.75a1.75 1.75 0 0 0-3.5 0v4.75a1.75 1.75 0 0 0 3.5 0zM90.2 79.763a1.747 1.747 0 0 0-2.3.919l-1.871 4.366a1.75 1.75 0 1 0 3.217 1.379l1.871-4.366a1.751 1.751 0 0 0-.917-2.298z"/></svg>