<svg height="512" viewBox="0 0 128 128" width="512" xmlns="http://www.w3.org/2000/svg"><g><path d="m96.05 89.228c3.548-7.959 5.346-15.6 5.346-22.744.004-25.543-15.727-44.084-37.396-44.084s-37.4 18.541-37.4 44.084c0 7.14 1.8 14.785 5.346 22.744a9.25 9.25 0 0 0 5.9 16.371h8.513a9.25 9.25 0 0 0 7.755-14.293c-4.106-6.326-9.014-15.767-9.014-24.822 0-15.063 7.775-25.584 18.9-25.584s18.9 10.52 18.9 25.583c0 9.055-4.9 18.5-9.017 24.822a9.249 9.249 0 0 0 7.75 14.295h8.513a9.25 9.25 0 0 0 5.9-16.371zm-5.9 12.871h-8.517a5.75 5.75 0 0 1 -4.82-8.885c4.372-6.723 9.587-16.814 9.587-26.73 0-17.124-9.213-29.084-22.4-29.084s-22.4 11.96-22.4 29.084c0 9.913 5.211 20.007 9.583 26.73a5.75 5.75 0 0 1 -4.82 8.885h-8.509a5.751 5.751 0 0 1 -2.84-10.752 1.75 1.75 0 0 0 .719-2.263c-3.733-7.974-5.633-15.577-5.633-22.6 0-23.515 14.259-40.584 33.9-40.584s33.9 17.069 33.9 40.584c0 7.023-1.894 14.626-5.629 22.6a1.75 1.75 0 0 0 .719 2.263 5.751 5.751 0 0 1 -2.84 10.752z"/><path d="m66.375 29.125h-4.75a1.75 1.75 0 0 0 0 3.5h4.75a1.75 1.75 0 0 0 0-3.5z"/><path d="m43.59 37.98-3.036 3.653a1.75 1.75 0 0 0 2.691 2.237l3.037-3.653a1.75 1.75 0 0 0 -2.692-2.237z"/><path d="m37.3 65.214v-4.75a1.75 1.75 0 0 0 -3.5 0v4.75a1.75 1.75 0 0 0 3.5 0z"/><path d="m39.648 80.682a1.75 1.75 0 1 0 -3.216 1.379l1.868 4.366a1.75 1.75 0 0 0 3.217-1.379z"/><path d="m87 41.633-3.038-3.653a1.75 1.75 0 0 0 -2.691 2.237l3.036 3.653a1.75 1.75 0 0 0 2.693-2.237z"/><path d="m93.749 65.214v-4.75a1.75 1.75 0 0 0 -3.5 0v4.75a1.75 1.75 0 0 0 3.5 0z"/><path d="m90.2 79.763a1.747 1.747 0 0 0 -2.3.919l-1.871 4.366a1.75 1.75 0 1 0 3.217 1.379l1.871-4.366a1.751 1.751 0 0 0 -.917-2.298z"/></g></svg>