<svg height="512" viewBox="0 0 48 48" width="512" xmlns="http://www.w3.org/2000/svg"><g id="49-balance,-business,-evaluation,-justice,-law,-scale" fill="none" fill-rule="evenodd"><path id="Shape" d="m24 5c.5128358 0 1 .42084863 1 1v4h16c.5522847 0 1 .4477153 1 1 0 .5128358-.410687 1.0007602-1 1l-4.4255474.0007602c3.6170316 7.6782043 5.4255474 12.6779509 5.4255474 14.9992398 0 3.8659932-3.1340068 7-7 7s-7-3.1340068-7-7c0-2.2359553 1.8083333-7.2359553 5.425-15h-8.425v29h9c.5522847 0 1 .4477153 1 1 0 .5128358-.4157253 1-1 1h-20c-.5522847 0-1-.4477153-1-1 0-.5128358.4256903-1 1-1h9v-29l-8.4255474.0007602c3.6170316 7.7403797 5.4255474 12.7401263 5.4255474 14.9992398 0 3.8659932-3.1340068 7-7 7-3.86599325 0-7-3.1340068-7-7 0-2.2313768 1.80833333-7.2313768 5.425-15h-4.425c-.55228475 0-1-.4477153-1-1 0-.5128358.44236951-1 1-1h16v-4c0-.55228475.4477153-1 1-1zm15.8997409 23.0011864h-9.7994818c.4637287 2.2816492 2.4812022 3.9988136 4.8997409 3.9988136s4.4360122-1.7171644 4.8997409-3.9988136zm-22 0h-9.79948181c.46372867 2.2816492 2.48120221 3.9988136 4.89974091 3.9988136s4.4360122-1.7171644 4.8997409-3.9988136zm-4.8997409-14.6421864c-2.8402408 6.1827578-4.47010758 10.3966525-4.88960028 12.6416841h9.77920058c-.414357-2.2175463-2.0442237-6.431441-4.8896003-12.6416841zm22 0c-2.8393676 6.1780846-4.4692344 10.3919793-4.8896003 12.6416841h9.7792006c-.427089-2.2856852-2.0569558-6.4995799-4.8896003-12.6416841z" fill="rgb(0,0,0)" fill-rule="nonzero"/></g></svg>