<svg height="60" viewBox="0 0 60 60" width="60" xmlns="http://www.w3.org/2000/svg"><g id="Page-1" fill="none" fill-rule="evenodd"><g id="023---Durable-Fabric" fill="rgb(0,0,0)" fill-rule="nonzero"><path id="Shape" d="m57 39c1.6568542 0 3-1.3431458 3-3s-1.3431458-3-3-3h-3.29c-2.164458-.0656231-4.3013725.498917-6.151 1.625 1.8-7.478-2.152-16.668-8.424-21.386l1.411-3.748c.8122119-2.16979779.5135378-4.59951134-.8-6.508-1.2820692-1.86686384-3.4012965-2.98258128-5.666-2.983h-8.16c-2.2637243.00119727-4.3818704 1.1163653-5.664 2.982-1.3134088 1.90966335-1.6120445 4.34018435-.8 6.511l1.411 3.746c-6.246 4.7-10.229 13.874-8.425 21.385-1.8503404-1.1251725-3.98739673-1.6893109-6.152-1.624h-3.29c-1.65685425 0-3 1.3431458-3 3s1.34314575 3 3 3h2v4.064c-.578-.048-1.231-.064-2-.064-1.65685425 0-3 1.3431458-3 3s1.34314575 3 3 3c.43 0 1.014 0 1.4.014.113.164.243.36.341.507 1.918 2.89 5.081 5.32 9.671 7.429 6.148 2.83 13.488 3.05 15.588 3.05s9.439-.22 15.59-3.048c3.9648696-1.7659945 7.4249174-4.4958742 10.065-7.941.382-.011.901-.011 1.345-.011 1.6568542 0 3-1.3431458 3-3s-1.3431458-3-3-3c-.762 0-1.416 0-2 .04v-4.04zm-35.673-30.21c-.5848641-1.52486419-.3881476-3.23925915.5269063-4.59201678s2.4330994-2.17335815 4.0660937-2.19798322h8.16c1.6326574.0245442 3.1504735.84474203 4.0656595 2.19700207.9151861 1.35226005 1.1124292 3.06619859.5283405 4.59099793l-1.248 3.312c-.5784941-.3406405-1.1776555-.6448969-1.794-.911l1.161-3.1c.370334-.93643726.2444179-1.99638788-.335-2.82-.5284043-.79644876-1.4222165-1.27342424-2.378-1.269h-8.16c-.9512171-.00562396-1.8416281.4670077-2.37 1.258-.5853108.82174748-.7169107 1.88319459-.35 2.823l1.164 3.108c-.61667.2660984-1.2161643.5703543-1.795.911zm4.926 1.729-1.18-3.148c-.129886-.32606182-.0826474-.69603489.125-.979.1576135-.24573323.4300684-.39365885.722-.392h8.16c.2958533-.00077633.5714341.15022684.73.4.2032865.28452098.2459728.65358721.113.977l-1.176 3.14c-2.4501912-.69184312-5.0441784-.69115084-7.494.002zm3.747 1.481c9.005 0 15.551 9.455 15.976 18 .2277309 2.8480714-.5121772 5.6896704-2.1 8.065-2.476 3.716-7.664 5.935-13.876 5.935-6.247 0-11.434-2.216-13.89-5.953-1.4998727-2.2479903-2.2394085-4.9176794-2.11-7.617.218-9.63 7.729-18.43 16-18.43zm-28 24c0-.5522847.44771525-1 1-1h3.29c1.86552548-.0769818 3.70978263.4200323 5.284 1.424 1.1037245.7986456 2.0908692 1.7470853 2.933 2.818 2.829 4.232 8.61 6.758 15.493 6.758 6.858 0 12.65-2.534 15.5-6.764.8415101-1.0696245 1.828001-2.0167365 2.931-2.814 1.5729759-1.0023939 3.4153563-1.4986744 5.279-1.422h3.29c.5522847 0 1 .4477153 1 1s-.4477153 1-1 1h-3.29c-1.4557298-.0732641-2.8992084.2989426-4.138 1.067-1.291972.9657443-2.4116955 2.1426034-3.312 3.481-1.4729206 1.9637535-3.4280567 3.5138085-5.676 4.5-3.3676778 1.3321074-6.9626876 1.9951326-10.584 1.952-3.6193169.0442263-7.212584-.6170925-10.579-1.947-2.2490119-.9857914-4.2052146-2.5358727-5.679-4.5-.9000511-1.3388858-2.0198039-2.5161138-3.312-3.482-1.23881021-.7700907-2.68315415-1.1437362-4.14-1.071h-3.29c-.55228475 0-1-.4477153-1-1zm23 17.661v-4.044c1.3254734.1957206 2.6609245.316579 4 .362v4c-.988-.026-2.393-.109-4-.318zm-12-9.838c1.1522462 1.2814883 2.5027657 2.3696694 4 3.223v4.489c-1.3952851-.622019-2.7336856-1.3644967-4-2.219zm6 4.214c1.2917831.5338724 2.6310494.9446923 4 1.227v4.082c-1.3558343-.247362-2.692496-.5902158-4-1.026zm12 1.942c1.3391237-.0452818 2.6746015-.1664764 4-.363v4.045c-1.607.209-3.012.292-4 .322zm6-.716c1.3689996-.2816603 2.7082952-.6921544 4-1.226v4.284c-1.3074887.4355834-2.6441598.7781054-4 1.025zm6-2.217c1.4973853-.8535188 2.8479264-1.9420549 4-3.224v5.367c-1.2475653.9198188-2.5882459 1.706128-4 2.346zm-36-8.012c.8101827.0223166 1.60039578.2564155 2.292.679.62823684.4637288 1.2013033.9978751 1.708 1.592v6.4c-.4726279-.4546997-.8965843-.9574147-1.265-1.5-.62382411-1.150493-1.57589204-2.0893329-2.735-2.697zm51 6.966c0 .5522847-.4477153 1-1 1-.768 0-1.561 0-1.977.044-.2682408.028796-.513467.1647522-.68.377-.563596.7939599-1.1821094 1.5474703-1.851 2.255-2.207065 2.2968502-4.8337455 4.14958-7.738 5.458-5.781 2.659-12.754 2.866-14.754 2.866s-8.973-.207-14.757-2.867c-7.513-3.453-8.695-6.751-9.56-7.733-.14719846-.1672839-.34605166-.2806126-.565-.322-.70321419-.0767823-1.41104299-.1028497-2.118-.078-.55228475 0-1-.4477153-1-1s.44771525-1 1-1c3.305 0 3.636.151 5.069 2.309 1.475 2.221 4.17 4.242 8.01 6.007 5.414 2.491 12.021 2.684 13.921 2.684s8.506-.193 13.918-2.683c3.3886939-1.5003988 6.3436891-3.8321311 8.591-6.779 1.143-1.538 1.591-1.538 4.491-1.538.5522847 0 1 .4477153 1 1zm-7.1-.655c-.557851.7815139-1.1945278 1.5036393-1.9 2.155v-6.195c.5071424-.595002 1.0808964-1.1298346 1.71-1.594.6913481-.4212485 1.4807339-.6546172 2.29-.677v4.46c-.8484168.4248296-1.5720169 1.0626314-2.1 1.851z"/></g></g></svg>