<svg xmlns="http://www.w3.org/2000/svg" viewBox="0 0 512 512" xmlns:v="https://vecta.io/nano"><path d="M442.434 52.012L275.781 2.863c-12.938-3.817-26.621-3.817-39.563 0L69.567 52.011C57.263 55.639 48.67 67.131 48.67 79.959v138.014c0 63.872 19.013 125.375 54.984 177.86 35.118 51.243 83.991 90.665 141.33 114 3.552 1.445 7.284 2.168 11.016 2.168s7.464-.724 11.015-2.168c57.339-23.335 106.212-62.755 141.33-114 35.97-52.486 54.983-113.988 54.983-177.86V79.96c.002-12.828-8.591-24.321-20.894-27.948zm-2.414 165.96c0 59.147-17.602 116.093-50.901 164.681-32.53 47.466-77.79 83.978-130.889 105.587-1.438.585-3.021.585-4.459 0-53.099-21.609-98.36-58.12-130.889-105.587-33.299-48.588-50.901-105.533-50.901-164.681V79.959c0-2.565 1.719-4.863 4.18-5.589l166.652-49.149a46.57 46.57 0 0 1 26.375.001L435.842 74.37a5.86 5.86 0 0 1 4.178 5.589v138.013zm-54.87-114.417l-124.206-36.63a17.44 17.44 0 0 0-9.888 0l-124.203 36.63a17.59 17.59 0 0 0-12.539 16.77v97.647c0 51.598 15.608 101.088 45.134 143.122 22.892 32.593 53.481 59.502 88.458 77.82a17.43 17.43 0 0 0 8.095 1.991c2.78 0 5.56-.663 8.095-1.991 34.976-18.317 65.565-45.228 88.458-77.82 29.526-42.033 45.134-91.524 45.134-143.122v-97.647c-.001-7.698-5.157-14.593-12.538-16.77zm-10.772 114.417c0 46.777-14.142 91.635-40.897 129.723-20.172 28.717-46.912 52.562-77.48 69.12-30.568-16.559-57.309-40.403-77.48-69.12-26.755-38.088-40.897-82.946-40.897-129.723v-93.29L256.001 89.77l118.377 34.912v93.29z"/></svg>