<svg xmlns="http://www.w3.org/2000/svg" height="512" viewBox="0 0 48 48" width="512" xmlns:v="https://vecta.io/nano"><path d="M24 5c10.493 0 19 8.507 19 19s-8.507 19-19 19S5 34.493 5 24 13.507 5 24 5zm0 2C14.611 7 7 14.611 7 24s7.611 17 17 17 17-7.611 17-17S33.389 7 24 7zm10.707 6.293c.36.36.425 1.011 0 1.414l-7.261 7.261A3.98 3.98 0 0 1 28 24a4 4 0 1 1-8 0 4 4 0 0 1 4-4 3.98 3.98 0 0 1 2.032.554l7.261-7.261a1 1 0 0 1 1.414 0zM24 22a2 2 0 1 0 0 4 2 2 0 1 0 0-4zm11.818-3.424C36.593 20.263 37 22.104 37 24a1 1 0 1 1-2 0c0-1.606-.344-3.162-1-4.589a1 1 0 0 1 1.817-.835zM24 11c1.914 0 3.771.414 5.47 1.204a1 1 0 1 1-.842 1.814C27.191 13.35 25.621 13 24 13c-6.075 0-11 4.925-11 11a1 1 0 1 1-2 0c0-7.18 5.82-13 13-13z"/></svg>