<svg xmlns="http://www.w3.org/2000/svg" xmlns:xlink="http://www.w3.org/1999/xlink" width="512" height="512"><use xlink:href="#B"/><use xlink:href="#B" x="-40" y="-30"/><use xlink:href="#B" x="-80" y="-60"/><path d="M66 424.955c0 5.52 4.48 10 10 10s10-4.48 10-10-4.48-10-10-10-10 4.48-10 10zm411.383-173.428c-22.899-19.762-52.614-28.652-81.512-24.375-28.285 4.166-47.749-5.46-65.627-26.916-21.369-25.665-37.814-65.011-61.683-100.826a10 10 0 0 0-8.321-4.455h-27.88c-32.253 0-44.1-11.705-67.702-35.023a10 10 0 0 0-13.956-.099L33.364 172.593c-11.961 13.756-8.986 34.919 6.292 44.849l215.099 164.836c11.848 8.294 25.744 12.678 40.186 12.678H482c16.542 0 30-13.458 30-30v-40c0-27.678-12.617-54.44-34.617-73.429zM157.55 80.988c21.288 20.699 38.225 33.967 74.811 33.967h22.475c3.695 5.74 7.157 11.479 10.293 16.846-37.254 7.781-60.462.314-92.258-17.223-3.617-1.994-8.085-1.562-11.249 1.09-12.459 10.433-30.284 12.324-44.769 4.41l40.697-39.09zM492 364.955c0 5.514-4.486 10-10 10H294.94c-10.248 0-20.115-3.093-28.546-8.944L51.483 201.308a10.36 10.36 0 0 0-.778-.539 10 10 0 0 1-2.489-14.765l5.921-5.688 222.164 170.09a29.93 29.93 0 0 0 15.879 4.55H492v9.999zm0-30H292.18c-1.74 0-3.441-.451-4.943-1.309L68.729 166.299l33.243-31.929c20.395 14.087 46.903 13.877 66.896.783 23.562 12.491 43.958 19.814 68.617 19.813 11.479 0 23.889-1.594 37.962-4.985l7.004 12.633-27.002 27.002c-3.905 3.905-3.905 10.237 0 14.143s10.236 3.904 14.143 0l23.128-23.128c5.117 8.654 10.577 17.259 16.501 25.207l-13.773 13.781c-3.904 3.906-3.902 10.238.004 14.143s10.236 3.902 14.143-.004l12.611-12.618c7.536 7.67 15.405 13.642 23.731 17.99l-10.487 10.487c-3.905 3.905-3.905 10.237 0 14.143s10.236 3.904 14.143 0l17.264-17.264c9.916 1.957 20.628 2.114 31.937.445 23.148-3.421 47.029 3.77 65.523 19.731C481.909 281.854 492 303.098 492 324.955v10zm-492 50c0 5.522 4.478 10 10 10h206c5.522 0 10-4.478 10-10s-4.478-10-10-10H10c-5.522 0-10 4.478-10 10zm216 30H116c-5.522 0-10 4.478-10 10s4.478 10 10 10h100c5.522 0 10-4.478 10-10s-4.478-10-10-10zm140 40c5.522 0 10-4.478 10-10s-4.478-10-10-10H256c-5.522 0-10 4.478-10 10s4.478 10 10 10h100zm146-40H396c-5.522 0-10 4.478-10 10s4.478 10 10 10h106c5.522 0 10-4.478 10-10s-4.478-10-10-10z"/><defs ><path id="B" d="M314.24 274.955c-5.52 0-10 4.48-10 10s4.48 10 10 10a10 10 0 1 0 0-20z"/></defs></svg>