<svg xmlns="http://www.w3.org/2000/svg" height="512" viewBox="0 0 256 256" width="512"><path d="M164.211 148.635a5 5 0 0 1-3.535-8.535l33.705-33.7a5 5 0 1 1 7.07 7.071l-33.7 33.7a4.984 4.984 0 0 1-3.54 1.464zM154.132 252.37a102.019 102.019 0 0 1-64.785-23.253 5.001 5.001 0 1 1 6.363-7.717A91.856 91.856 0 1 0 67.1 121a5 5 0 1 1-9.471-3.209 101.879 101.879 0 1 1 96.5 134.575z"/><path d="M222.618 87a5 5 0 0 1-3.535-8.536l14.909-14.908a5 5 0 0 1 7.071 7.071l-14.91 14.909A4.983 4.983 0 0 1 222.618 87z"/><path d="M245.8 80.361a4.98 4.98 0 0 1-3.535-1.465l-16.544-16.542a5 5 0 0 1 7.07-7.072l16.543 16.543a5 5 0 0 1-3.535 8.536zm-91.668-21.726a5 5 0 0 1-5-5V31.149a5 5 0 0 1 10 0v22.486a5 5 0 0 1-5 5z"/><path d="M184.581 36.149h-60.9a5 5 0 0 1-5-5V8.63a5 5 0 0 1 5-5h60.9a5 5 0 0 1 5 5v22.519a5 5 0 0 1-5 5zm-55.9-10h50.9V13.63h-50.9zm25.451 141.36a17.007 17.007 0 1 1 17.007-17.009 17.026 17.026 0 0 1-17.007 17.009zm0-24.013a7.007 7.007 0 1 0 7.007 7.006 7.014 7.014 0 0 0-7.007-7.002zm-62.955-2.042H44.5a5 5 0 1 1 0-10h46.677a5 5 0 1 1 0 10zm0 36.779H29.109a5 5 0 0 1 0-10h62.068a5 5 0 1 1 0 10zm0 37.959H5a5 5 0 0 1 0-10h86.177a5 5 0 1 1 0 10z"/></svg>