<svg xmlns="http://www.w3.org/2000/svg" height="512" viewBox="0 0 48 48" width="512"><path d="M24 5a1.01 1.01 0 0 1 1 1v4h16a1 1 0 1 1 0 2l-4.426.001C40.191 19.679 42 24.679 42 27a7 7 0 1 1-14 0c0-2.236 1.808-7.236 5.425-15H25v29h9a1 1 0 0 1 1 1c0 .513-.416 1-1 1H14a1 1 0 0 1-1-1c0-.513.426-1 1-1h9V12l-8.426.001C18.191 19.741 20 24.741 20 27a7 7 0 1 1-14 0c0-2.231 1.808-7.231 5.425-15H7a1 1 0 0 1-1-1c0-.513.442-1 1-1h16V6a1 1 0 0 1 1-1zm15.9 23.001H30.1C30.564 30.283 32.581 32 35 32s4.436-1.717 4.9-3.999zm-22 0H8.1C8.564 30.283 10.581 32 13 32s4.436-1.717 4.9-3.999zM13 13.359c-2.84 6.183-4.47 10.397-4.89 12.642h9.779c-.414-2.218-2.044-6.431-4.89-12.642zm22 0c-2.839 6.178-4.469 10.392-4.89 12.642h9.779c-.427-2.286-2.057-6.5-4.89-12.642z"/></svg>