<svg xmlns="http://www.w3.org/2000/svg" height="60" width="60"><path d="M57 39a3 3 0 1 0 0-6h-3.29c-2.164-.066-4.301.499-6.151 1.625 1.8-7.478-2.152-16.668-8.424-21.386l1.411-3.748c.812-2.17.514-4.6-.8-6.508C38.464 1.116 36.345 0 34.08 0h-8.16c-2.264.001-4.382 1.116-5.664 2.982a7.1 7.1 0 0 0-.8 6.511l1.411 3.746c-6.246 4.7-10.229 13.874-8.425 21.385A11.19 11.19 0 0 0 6.29 33H3a3 3 0 1 0 0 6h2v4.064C4.422 43.016 3.769 43 3 43a3 3 0 1 0 0 6l1.4.014.341.507c1.918 2.89 5.081 5.32 9.671 7.429C20.56 59.78 27.9 60 30 60s9.439-.22 15.59-3.048c3.965-1.766 7.425-4.496 10.065-7.941C56.037 49 56.556 49 57 49a3 3 0 1 0 0-6c-.762 0-1.416 0-2 .04V39zM21.327 8.79A5 5 0 0 1 25.92 2h8.16a5 5 0 0 1 4.594 6.788L37.426 12.1a16.16 16.16 0 0 0-1.794-.911l1.161-3.1a2.99 2.99 0 0 0-.335-2.82A2.84 2.84 0 0 0 34.08 4h-8.16a2.83 2.83 0 0 0-2.37 1.258 2.99 2.99 0 0 0-.35 2.823l1.164 3.108a16.17 16.17 0 0 0-1.795.911zm4.926 1.729l-1.18-3.148a1.02 1.02 0 0 1 .125-.979A.85.85 0 0 1 25.92 6h8.16a.86.86 0 0 1 .73.4c.203.285.246.654.113.977l-1.176 3.14c-2.45-.692-5.044-.691-7.494.002zM30 12c9.005 0 15.551 9.455 15.976 18a12.69 12.69 0 0 1-2.1 8.065C41.4 41.781 36.212 44 30 44c-6.247 0-11.434-2.216-13.89-5.953-1.5-2.248-2.239-4.918-2.11-7.617C14.218 20.8 21.729 12 30 12zM2 36a1 1 0 0 1 1-1h3.29c1.866-.077 3.71.42 5.284 1.424 1.104.799 2.091 1.747 2.933 2.818C17.336 43.474 23.117 46 30 46c6.858 0 12.65-2.534 15.5-6.764.842-1.07 1.828-2.017 2.931-2.814 1.573-1.002 3.415-1.499 5.279-1.422H57a1 1 0 1 1 0 2h-3.29a7.17 7.17 0 0 0-4.138 1.067c-1.292.966-2.412 2.143-3.312 3.481-1.473 1.964-3.428 3.514-5.676 4.5A27.87 27.87 0 0 1 30 48c-3.619.044-7.213-.617-10.579-1.947-2.249-.986-4.205-2.536-5.679-4.5-.9-1.339-2.02-2.516-3.312-3.482-1.239-.77-2.683-1.144-4.14-1.071H3a1 1 0 0 1-1-1zm23 17.661v-4.044a35.66 35.66 0 0 0 4 .362v4c-.988-.026-2.393-.109-4-.318zm-12-9.838a16.1 16.1 0 0 0 4 3.223v4.489c-1.395-.622-2.734-1.364-4-2.219zm6 4.214c1.292.534 2.631.945 4 1.227v4.082a29.26 29.26 0 0 1-4-1.026zm12 1.942c1.339-.045 2.675-.166 4-.363v4.045c-1.607.209-3.012.292-4 .322zm6-.716a22.17 22.17 0 0 0 4-1.226v4.284c-1.307.436-2.644.778-4 1.025zm6-2.217a16.09 16.09 0 0 0 4-3.224v5.367c-1.248.92-2.588 1.706-4 2.346zM7 39.034a4.64 4.64 0 0 1 2.292.679A10.23 10.23 0 0 1 11 41.305v6.4a9.44 9.44 0 0 1-1.265-1.5c-.624-1.15-1.576-2.089-2.735-2.697zM58 46a1 1 0 0 1-1 1c-.768 0-1.561 0-1.977.044a1 1 0 0 0-.68.377 20.85 20.85 0 0 1-1.851 2.255c-2.207 2.297-4.834 4.15-7.738 5.458C38.973 57.793 32 58 30 58s-8.973-.207-14.757-2.867C7.73 51.68 6.548 48.382 5.683 47.4a1 1 0 0 0-.565-.322A14.74 14.74 0 0 0 3 47a1 1 0 1 1 0-2c3.305 0 3.636.151 5.069 2.309 1.475 2.221 4.17 4.242 8.01 6.007C21.493 55.807 28.1 56 30 56s8.506-.193 13.918-2.683a22.01 22.01 0 0 0 8.591-6.779C53.652 45 54.1 45 57 45a1 1 0 0 1 1 1zm-7.1-.655c-.558.782-1.195 1.504-1.9 2.155v-6.195a10.22 10.22 0 0 1 1.71-1.594 4.65 4.65 0 0 1 2.29-.677v4.46a5.48 5.48 0 0 0-2.1 1.851z"/></svg>