<svg xmlns="http://www.w3.org/2000/svg" height="512" viewBox="0 0 450 450" width="512"><path d="M223.3 126.2c-19.5 0-35.3-15.8-35.3-35.3s15.8-35.3 35.3-35.3 35.3 15.8 35.3 35.3-15.8 35.3-35.3 35.3zm0-60.6c-14 0-25.3 11.4-25.3 25.3s11.4 25.3 25.3 25.3 25.3-11.4 25.3-25.3-11.4-25.3-25.3-25.3zM63.8 305.7C43 305.7 24.4 295 14 277s-10.4-39.5 0-57.5l45.4-80.7c.9-1.6 2.6-2.6 4.4-2.6s3.5 1 4.4 2.6l45.4 80.7c10.4 18 10.4 39.4 0 57.4s-29 28.8-49.8 28.8zm0-154.3l-41.1 73c-8.6 14.9-8.6 32.7 0 47.5s24 23.7 41.1 23.7 32.5-8.9 41.1-23.7c8.6-14.9 8.6-32.6 0-47.5z"/><path d="M116.3 251.3h-105a5 5 0 1 1 0-10h105a5 5 0 1 1 0 10zm271.1-26.8c-20.8 0-39.4-10.7-49.8-28.7s-10.4-39.5 0-57.5L383.5 60c.9-1.5 2.5-2.5 4.3-2.5s3.4 1 4.3 2.5l45.1 78.3c10.4 18 10.4 39.5 0 57.5s-29 28.7-49.8 28.7zm.4-152l-41.4 70.8c-8.6 14.8-8.6 32.6 0 47.4 8.6 14.9 24 23.7 41.1 23.7 17.2 0 32.5-8.9 41.1-23.7 8.6-14.9 8.6-32.6 0-47.5z"/><path d="M440 170.1H335a4.95 4.95 0 1 1 0-10h105a4.95 4.95 0 0 1 5 5c0 2.8-2.3 5-5 5zM45.1 148.6c-10.1 0-20.2-1.9-29.7-5.6-4.5-1.8-8-5.4-9.6-10-1.5-4.6-1-9.5 1.5-13.6 2.3-3.7 5.8-6.3 10.1-7.4 3.2-.8 6.5-.6 9.6.6 9.4 3.7 19.9 4.4 29.5 2.1L192 81.8c2.7-.7 5.4 1 6 3.7s-1 5.4-3.7 6L59 124.4c-11.7 2.8-24.3 2-35.5-2.4-1.2-.4-2.4-.5-3.6-.2-1.6.4-3 1.4-3.9 2.8-1 1.6-1.2 3.5-.6 5.2.6 1.8 2 3.2 3.8 3.9a71.36 71.36 0 0 0 38.5 3.8l4.3-.9 135.5-32.9c2.7-.6 5.4 1 6 3.7s-1 5.4-3.7 6L64.3 146.3c-1.6.4-3.3.7-4.9 1-4.7.8-9.5 1.3-14.3 1.3zm208.2-48.4c-2.3 0-4.3-1.5-4.9-3.8-.6-2.7 1-5.4 3.7-6l135.5-32.9c1.4-.3 2.8-.7 4.3-1.2 12.6-3.9 23.9-11.2 32.5-21 1.3-1.4 1.8-3.3 1.5-5.2-.3-1.8-1.3-3.4-2.9-4.4-2.6-1.6-6-1.1-7.9 1.2-8 9.2-18.5 15.5-30.5 18.5L249.1 78.2c-2.7.7-5.4-1-6-3.7s1-5.4 3.7-6l135.5-32.9c9.9-2.4 18.6-7.7 25.3-15.3 5.2-5.9 13.9-7.3 20.6-3.1 4.1 2.5 6.9 6.7 7.6 11.4a16.56 16.56 0 0 1-3.9 13.3c-9.9 11.3-22.7 19.6-37.1 24-1.7.5-3.3.9-4.8 1.3l-135.5 32.9c-.4.1-.8.1-1.2.1zm73.1 335H120.2a4.95 4.95 0 0 1-5-5v-.7c0-18.9 15.4-34.3 34.3-34.3h147.6c18.9 0 34.3 15.4 34.3 34.3v.7a4.95 4.95 0 0 1-5 5zm-200.8-10H321c-2-11.4-12-20-24-20H149.5c-11.9 0-21.9 8.7-23.9 20z"/><path d="M207.9 405.2a4.95 4.95 0 0 1-5-5V117.1a4.95 4.95 0 1 1 10 0v283.1a4.95 4.95 0 0 1-5 5zm30.7 0a4.95 4.95 0 0 1-5-5V117.1a4.95 4.95 0 1 1 10 0v283.1a4.95 4.95 0 0 1-5 5z"/></svg>